<svg xmlns="http://www.w3.org/2000/svg" version="1.1" xmlns:xlink="http://www.w3.org/1999/xlink" xmlns:svgjs="http://svgjs.dev/svgjs" width="100%" height="100%" viewBox="0 0 1000 600"><rect width="1000" height="600" x="0" y="0" fill="#ee4e34"/><g><rect width="333.3333333333333" height="333.3333333333333" y="269.49331314244944" fill="#fcedda" transform="matrix(0.50551804783465,0,0,0.50551804783465,-26.28761592260165,79.51325945419784)" x="352.4344177246093"/><path d="M417.4844176384523 384.0953083934629L414.7672380594615 394.20438510669777Q405.91449168920093 390.81521487913926 397.61686802862664 388.7115919792754Q389.31924436805235 386.6079690794115 378.88878082289386 386.3157992322081Q368.4875342624557 385.9944124002845 360.4820804490847 388.945327857038Q352.5058436204341 391.8670263290712 345.96123904307973 400.19386697436585Q339.44585145044573 408.49149063494013 337.34222855058186 421.9605205910131L337.34222855058186 421.9605205910131Q336.93319076449717 424.2686623839193 353.3239191926034 423.3337188728687Q369.74386460542996 422.36955837709775 385.3165174613669 421.1132280341235Q400.8891703173038 419.85689769114924 406.76178424609054 423.01233204094507L406.76178424609054 423.01233204094507Q427.5934943516872 441.53590035363555 436.00798595114276 457.31307210261474L436.00798595114276 457.31307210261474Q440.2152317508706 464.88027114518076 432.4435138152623 479.16737667342306L432.4435138152623 479.16737667342306Q422.5389559950698 497.0481713222662 403.810868789337 505.4626629217218L403.810868789337 505.4626629217218Q370.7956760553619 520.6262779915742 331.46961462179513 494.3309917432753L331.46961462179513 494.3309917432753Q315.4587069950532 483.60835835091353 299.2724974599893 465.9320825951127L299.2724974599893 465.9320825951127L305.58336615958103 462.77664824531684Q317.79606577267975 469.2920358379509 325.24639687636443 472.85650797383136Q332.7259449647694 476.4501970944322 344.0913520209785 480.131537169194Q355.4275420924673 483.8128772439559 364.0757695696856 484.0173961369982L364.0757695696856 484.0173961369982Q384.0601871183926 484.4264339230828 396.8864434106183 474.22970625568695Q409.7126997028441 464.0329785882911 411.4072848166233 446.5612217255326L411.4072848166233 446.5612217255326Q411.61180370966565 444.6913347034314 396.24366974677105 447.0871274504986Q380.9047527685968 449.51213718228615 365.3320999126598 451.4112411891077Q349.75944705672293 453.3103451959293 341.75399324335194 448.4603257323542L341.75399324335194 448.4603257323542Q333.33950164389637 441.74041924667785 315.4587069950532 421.9605205910131L315.4587069950532 421.9605205910131Q309.7906119593088 415.00687822757413 309.58609306626647 407.0306413989235Q309.3815741732242 399.02518758555254 314.8451503159262 390.81521487913926Q320.3087264586283 382.6344591574463 328.31418027199925 376.089854580092Q336.2904171006499 369.5744669874579 347.12991843189303 365.36722118773014Q357.96941976313616 361.15997538800235 368.692053155498 361.15997538800235L368.692053155498 361.15997538800235Q371.4384497192092 361.15997538800235 379.00564876177515 364.63679656972187Q386.57284780434117 368.1136177514414 399.92500982153285 375.03804313016Q413.27717183872454 381.99168549359905 417.4844176384523 384.0953083934629L417.4844176384523 384.0953083934629ZM556.5572649072324 364.9581834016455L586.007985505327 373.3726750011011L586.007985505327 511.1599749421866L556.5572649072324 505.05362513563716L488.39403955469794 408.6960095279824L488.80307734078264 511.1599749421866L459.352356742688 505.05362513563716L459.352356742688 364.9581834016455L488.39403955469794 373.3726750011011L556.5572649072324 468.64926217410357L556.5572649072324 364.9581834016455ZM653.7329560870564 364.9581834016455L682.7746388990663 373.5771938941434L682.5409030213036 374.21996755799074L738.9296835315445 511.1599749421866L711.7871047263561 505.05362513563716L697.0617444273087 466.54563927423965L647.4220873874647 469.93480950179816L632.2876893023329 511.1599749421866L602.8369687042382 505.05362513563716L653.7329560870564 364.9581834016455ZM690.3418379416323 449.1030993962015L672.2565243997469 401.9761030423061L654.141993873141 451.6157600821501L690.3418379416323 449.1030993962015Z " fill="#ee4e34" transform="matrix(0.50551804783465,0,0,0.50551804783465,-26.28761592260165,79.51325945419784)"/><path d="M856.5380595912137 382.1655945730764L854.5282628380095 389.64290292370714Q847.9802153517636 387.136059661646 841.842771503269 385.580087981746Q835.7053276547744 384.02411630184594 827.9903014086034 383.80800912408205Q820.2968858802087 383.57029122854175 814.375549209478 385.75297372395704Q808.4758232565238 387.91404550159604 803.6350224746126 394.07310006786696Q798.8158324104777 400.2105439163616 797.2598607305777 410.1730848112771L797.2598607305777 410.1730848112771Q796.9573106817082 411.88033151561183 809.0809233542626 411.1887885467674Q821.2261467445935 410.4756348601465 832.744659319409 409.54637399576177Q844.2631718942246 408.61711313137704 848.6069261672789 410.9510706512271L848.6069261672789 410.9510706512271Q864.0153679418445 424.652265721458 870.2392546614446 436.3220533207082L870.2392546614446 436.3220533207082Q873.3511980212447 441.9192292247931 867.6027470927252 452.4868702174475L867.6027470927252 452.4868702174475Q860.276713766529 465.7126294965978 846.4242436718636 471.93651621619796L846.4242436718636 471.93651621619796Q822.0041325845435 483.15247874214407 792.9161064575234 463.70283274339357L792.9161064575234 463.70283274339357Q781.0734331160619 455.77169931945866 769.1010954679422 442.6972150647431L769.1010954679422 442.6972150647431L773.7690105076423 440.3632575448931Q782.8022905381731 445.18244760902786 788.3130235711525 447.8189551777474Q793.8453673219082 450.4770734642433 802.2519365369236 453.20002390406836Q810.6368950341626 455.92297434389343 817.0336674959739 456.07424936832814L817.0336674959739 456.07424936832814Q831.8153984550243 456.3767994171976 841.3025035588593 448.8346589132377Q850.7896086626941 441.2925184092778 852.0430302937248 428.36930917899696L852.0430302937248 428.36930917899696Q852.1943053181595 426.98622324130804 840.8270677677787 428.75830209897197Q829.4814409351742 430.55199167441225 817.9629283603587 431.9566883298776Q806.4444157855431 433.3613849853429 800.5230791148125 429.77400583446223L800.5230791148125 429.77400583446223Q794.2991923952123 424.8035407458927 781.0734331160619 410.1730848112771L781.0734331160619 410.1730848112771Q776.8809538674424 405.0297339804964 776.7296788430077 399.1300080275421Q776.5784038185731 393.2086713568114 780.6196080427578 387.136059661646Q784.6608122669426 381.0850586842569 790.5821489376733 376.24425790234574Q796.4818748906276 371.4250678382109 804.4994511856681 368.3131244784108Q812.5170274807085 365.20118111861075 820.4481609046435 365.20118111861075L820.4481609046435 365.20118111861075Q822.4795683756241 365.20118111861075 828.0767442797089 367.77285653400105Q833.6739201837937 370.3445319493914 843.5500182076038 375.4662720623957Q853.4261162314136 380.6096228931764 856.5380595912137 382.1655945730764L856.5380595912137 382.1655945730764ZM931.7001360174961 452.18432016857804L931.7001360174961 452.18432016857804Q935.7413402416809 446.73841928892796 938.1617406326365 440.60097544043333Q940.5605303058157 434.44192087416235 940.798248201356 428.9960199945122Q941.0359660968962 423.5501191148621 939.8689873369713 418.6444861796217Q938.7020085770463 413.7604639621577 935.4387901928114 410.7133527556868Q932.1755718085766 407.6878522669923 927.8966496888515 406.58570566039646Q923.6177275691264 405.50516977157696 917.3938408495263 407.5365772425576Q911.1699541299262 409.54637399576177 904.168081570376 414.68972482654243L904.168081570376 414.68972482654243L903.8439208037302 458.7107569370476Q906.6533141146607 460.59088938359355 910.9970683877151 461.2176001991088Q915.3624333785457 461.8227002968477 921.3486022026055 459.81290354364353Q927.3347710266654 457.78149607266295 931.7001360174961 452.18432016857804ZM921.2837700492763 475.5238953670786L921.2837700492763 475.5238953670786Q917.6963908983957 474.59463450269385 912.2504900187456 471.63396616732854Q906.8045891390955 468.67329783196317 904.168081570376 466.8147761031937L904.168081570376 466.8147761031937L904.168081570376 511.1599689803447L884.7184355716255 506.7946039895141Q884.2429997805449 403.32248727616167 884.7184355716255 401.1398047807463L884.7184355716255 401.1398047807463Q894.5080907243299 398.35202218759207 900.342984523955 397.18504342766704Q906.1778783235802 396.018064667742 913.6551866742109 395.629071747767Q921.1108843070652 395.240078827792 927.8966496888515 397.4875934765365Q934.6608043528614 399.7567188430574 941.8139519368464 404.4246338827575L941.8139519368464 404.4246338827575Q951.1497820162466 410.6485206023576 955.5151470070772 419.1199219707023Q959.8589012801315 427.59132333904694 959.3186333357218 435.7601746585221Q958.7783653913119 443.9290259779973 955.1261540871021 451.94660227303774Q951.4523320651159 459.96417856807824 945.8551561610311 465.6477973432686Q940.2579802569463 471.33141611845906 933.6451006173711 474.1191987116133Q927.0322209777959 476.9285920225439 921.2837700492763 475.5238953670786ZM1025.8364226514482 412.9824781222077L1025.8364226514482 412.9824781222077Q1015.5713317076633 405.98060556265756 1004.5282549239283 415.1435498998466L1004.5282549239283 415.1435498998466Q995.3436998689627 422.9234082993468 992.2317565091628 435.8466175296277L992.2317565091628 435.8466175296277Q988.7956523827169 450.628348488678 997.5263823643782 458.1056568393088L997.5263823643782 458.1056568393088Q998.6069182531977 459.0349177036935 999.8603398842282 459.81290354364353L999.8603398842282 459.81290354364353Q1006.0842266038284 463.22739695231303 1012.6971062434035 461.36887522354357Q1019.3099858829787 459.48874277699764 1024.1940081004427 453.1135810329628Q1029.099641035683 446.73841928892796 1031.9090343466137 439.4988288338375Q1034.6968169397678 432.25923837874706 1033.3137310020788 424.71709787478716Q1031.9090343466137 417.17495737082726 1025.8364226514482 412.9824781222077ZM1041.3961394504486 414.2142890354619L1041.3961394504486 414.2142890354619Q1045.9127794657143 418.2554932596467 1048.3980120099986 423.93911203483714Q1050.8832445542835 429.6227308100275 1051.2722374742584 435.5440674807582Q1051.6612303942338 441.44379343371253 1050.1917015854392 447.516405128878Q1048.7005620588684 453.58901682404337 1045.7615044412792 458.8836426792588Q1042.8008361059137 464.15665781669776 1038.3706389617541 468.28430491198816Q1033.918831099818 472.41195200727856 1028.645815962379 474.5081916315883Q1023.3511901071635 476.6044312558981 1016.889585492023 476.1506061825939Q1010.4279808768827 475.67517039151335 1003.7502690839783 472.1094019584091L1003.7502690839783 472.1094019584091Q995.019539102317 467.44148691870896 986.6345806050779 460.26672861694766L986.6345806050779 460.26672861694766Q979.9352580943972 454.5182776884281 976.6720397101624 447.2786872333377Q973.4088213259276 440.0390967782472 973.6249285036914 433.21010996090814Q973.8626463992317 426.35951242579273 976.2830467901873 419.5089148906773Q978.6818364633666 412.65831735556185 983.2849193497376 407.6878522669923Q987.8663915183321 402.69577646064636 993.3122923979822 399.19484018087127Q998.7581932776324 395.6939039010962 1005.068522868338 395.54262887666147Q1011.3572417412673 395.3913538522267 1017.2785784119981 398.20074716315736L1017.2785784119981 398.20074716315736Q1032.362859419918 406.13188058709227 1041.3961394504486 414.2142890354619ZM1068.3230937998296 397.2498755809962L1087.7727397985805 401.61524057182686L1087.7727397985805 413.1337531466424Q1099.118366631185 395.240078827792 1107.0495000551196 395.240078827792L1107.0495000551196 395.240078827792Q1110.9394292548695 395.240078827792 1120.1239843098351 399.19484018087127Q1129.3085393648007 403.1712122517269 1135.5324260844009 407.3636915003465L1135.5324260844009 407.3636915003465L1124.7918993495355 422.9234082993468Q1115.1535192212655 415.7702607153619 1108.0652037906098 415.07871774651744Q1100.9984990777307 414.3655640598966 1096.7844091113348 417.8665003396717Q1092.591929862715 421.3674366194468 1087.7727397985805 429.147295018947L1087.7727397985805 429.147295018947L1087.7727397985805 476.1506061825939L1068.3230937998296 471.78524119176325L1068.3230937998296 397.2498755809962ZM1149.3848961790663 408.14167734029644L1141.2808770129204 408.14167734029644L1136.6129619732205 397.2498755809962L1149.3848961790663 397.2498755809962L1149.3848961790663 380.45834786874167L1168.5103814111712 384.80210214179596L1168.5103814111712 397.2498755809962L1187.5062023366172 397.2498755809962L1192.1741173763176 408.14167734029644L1168.5103814111712 408.14167734029644L1168.5103814111712 427.91548410569277Q1168.5103814111712 429.6227308100275 1168.5103814111712 433.0372242186971L1168.5103814111712 433.0372242186971Q1168.5103814111712 437.251314185093 1168.4455492578418 441.44379343371253Q1168.3591063867366 445.65788340010846 1168.8993743311462 449.37492685764744Q1169.4612529933324 453.1135810329628 1170.2392388332823 456.2255243927629Q1171.0172246732322 459.33746775256293 1172.8757464020018 461.2176001991088Q1174.7342681307714 463.0761219278783 1177.392386417267 463.70283274339357Q1180.0288939859865 464.3295435589089 1184.1565410812768 462.838404032338Q1188.2841881765676 461.36887522354357 1193.5788140317827 457.9327710970976L1193.5788140317827 457.9327710970976L1197.7712932804025 462.77357187900884Q1188.7380132498715 471.0072553518132 1182.6870122724827 474.270473736048L1182.6870122724827 474.270473736048Q1178.0190972327823 476.9285920225439 1169.8502459133074 473.4276557427688Q1161.681394593832 469.92671946299373 1155.5223400275609 463.61638987228804Q1149.3848961790663 457.32767099935876 1149.3848961790663 452.65975595965864L1149.3848961790663 452.65975595965864L1149.3848961790663 408.14167734029644ZM1265.6073363804885 402.3932264117769L1265.6073363804885 402.3932264117769L1263.900089676154 410.7997956267924Q1248.8158086682342 407.3636915003465 1243.975007886323 407.99040231586173L1243.975007886323 407.99040231586173Q1236.368035229034 408.91966318024646 1232.0026702382029 415.3812677953869Q1227.6373052473723 421.8428724105274 1228.8907268784033 427.76420908125806L1228.8907268784033 427.76420908125806Q1229.1932769272726 429.147295018947 1236.043874462388 427.44004831461217Q1242.8944719975034 425.7328016102774 1250.9768804458731 423.93911203483714Q1259.080899612019 422.1454224593968 1261.4148571318692 423.39884409042736L1261.4148571318692 423.39884409042736Q1272.1553838667346 428.9960199945122 1275.8724273242738 438.1805750494777Q1279.611081499589 447.3651301044432 1276.7368560353293 455.68525644835313Q1273.8626305710695 464.00538279226305 1264.9806255649733 470.0779944874285Q1256.1202312766536 476.1506061825939 1243.6724578374533 476.1506061825939L1243.6724578374533 476.1506061825939Q1233.4073668936685 476.1506061825939 1224.6118047586779 470.46698740740345Q1215.8162426236877 464.78336863221307 1203.9951800000026 453.43774179960866L1203.9951800000026 453.43774179960866L1206.804573310933 448.14311594439323Q1217.3722143035875 456.07424936832814 1229.1932769272726 458.7971998081532Q1241.0359502687338 461.5201502479783 1251.2145983414134 456.70096018384345Q1261.4148571318692 451.8817701197086 1264.8293505405386 438.95856088942776L1264.8293505405386 438.95856088942776Q1264.9806255649733 438.33185007391245 1263.4246538850734 438.48312509834716L1263.4246538850734 438.48312509834716Q1261.7174071807385 438.6560108405583 1254.866809645623 440.5145325693278L1254.866809645623 440.5145325693278Q1233.2560918692338 446.26298349784736 1227.334755198503 443.9290259779973L1227.334755198503 443.9290259779973L1225.9300585430378 443.1510401380473Q1217.3722143035875 436.6246033695777 1212.077588448372 428.8447449700775L1212.077588448372 428.8447449700775Q1208.187659248622 423.5501191148621 1208.9008129352428 417.6503931619078Q1209.5923559040875 411.7290564911771 1212.8555742883223 406.8234235559367Q1216.1404033903332 401.91779062069634 1222.666840158803 398.7410151075671Q1229.1932769272726 395.54262887666147 1236.9731353267725 395.54262887666147L1236.9731353267725 395.54262887666147Q1239.3070928466227 395.54262887666147 1243.586014966348 396.4718897410462Q1247.864937086073 397.42276132320734 1255.7312383566787 399.67027597195187Q1263.5975396272843 401.91779062069634 1265.6073363804885 402.3932264117769ZM1419.021821875077 368.01057442954135L1440.8054253936775 374.2344611491415L1440.8054253936775 476.1506061825939L1419.021821875077 471.63396616732854L1368.625628020537 400.3618189407963L1368.9281780694064 476.1506061825939L1347.1445745508058 471.63396616732854L1347.1445745508058 368.01057442954135L1368.625628020537 374.2344611491415L1419.021821875077 444.7070118179473L1419.021821875077 368.01057442954135ZM1477.3707598713281 440.6658075937625L1477.3707598713281 440.6658075937625L1512.7042834357253 416.54824655531195Q1501.4883209097788 409.39509897132706 1493.6436303569494 411.2536207000965Q1485.7773290863438 413.1337531466424 1481.5848498377245 420.97844369947177Q1477.3707598713281 428.8447449700775 1477.3707598713281 440.6658075937625ZM1493.1033624125398 446.73841928892796L1480.9581390222093 455.5988135772476Q1485.3235040130398 460.89343943246297 1490.7694048926896 462.14686106349353Q1496.21530577234 463.37867197674774 1502.2014745963997 460.6557215369227Q1508.1876434204596 457.9327710970976 1512.2288476446442 455.2098206572726Q1516.2700518688293 452.4868702174475 1521.7159527484796 447.9918409199585L1521.7159527484796 447.9918409199585L1524.8278961082797 451.1037842797586Q1527.7885644436446 454.3670026639934 1530.74923277901 457.6302210482282L1530.74923277901 457.6302210482282L1533.8611761388102 460.74216440802826Q1520.3328668107906 470.70470530294375 1510.9970367313904 474.05436655828413Q1501.6612066519901 477.3824170958481 1492.4766515970246 473.9679236871786L1492.4766515970246 473.9679236871786Q1479.0996172934397 468.8245728563979 1467.256943951978 455.92297434389343L1467.256943951978 455.92297434389343Q1460.255071392428 448.14311594439323 1459.1745355036082 437.48903208063325Q1458.093999614789 426.8133374990969 1461.8974859434338 417.6503931619078Q1465.7009722720782 408.46583810694233 1473.7185485671184 402.00423349180187Q1481.7361248621587 395.54262887666147 1491.223229965994 395.54262887666147L1491.223229965994 395.54262887666147Q1497.4471166855942 395.54262887666147 1509.6571722292542 403.5602051717019Q1521.8888384906904 411.5777814667424 1529.9712469390602 419.20636484180784L1529.9712469390602 419.20636484180784Q1529.8199719146255 419.660189915112 1517.6099163709655 428.75830209897197Q1505.3782501095293 437.87802500060826 1493.1033624125398 446.73841928892796L1493.1033624125398 446.73841928892796ZM1547.713646233476 397.2498755809962L1567.1632922322265 401.61524057182686L1567.1632922322265 413.1337531466424Q1578.508919064831 395.240078827792 1586.4616632065422 395.240078827792L1586.4616632065422 395.240078827792Q1590.3515924062922 395.240078827792 1599.5145367434811 399.19484018087127Q1608.6990917984467 403.1712122517269 1614.9229785180469 407.3636915003465L1614.9229785180469 407.3636915003465L1604.1824517831815 422.9234082993468Q1594.544071654912 415.7702607153619 1587.4557562242558 415.07871774651744Q1580.3890515113767 414.3655640598966 1576.1749615449808 417.8665003396717Q1571.982482296361 421.3674366194468 1567.1632922322265 429.147295018947L1567.1632922322265 429.147295018947L1567.1632922322265 476.1506061825939L1547.713646233476 471.78524119176325L1547.713646233476 397.2498755809962ZM1646.3665728826932 463.70283274339357L1646.3665728826932 463.70283274339357Q1658.6414605796826 469.92671946299373 1676.0813098252288 457.6302210482282L1676.0813098252288 457.6302210482282L1676.0813098252288 413.9117389865924Q1671.5646698099636 411.2536207000965 1663.4822613615938 410.3243598357118L1663.4822613615938 410.3243598357118Q1657.0854888997824 409.6976490201965 1651.0344879223935 416.78596445085225Q1644.961876227228 423.87427988150796 1641.849932867428 433.21010996090814Q1638.7379895076278 442.5459400403084 1639.5808075009072 451.6440522241683Q1640.4452362119628 460.74216440802826 1646.3665728826932 463.70283274339357ZM1676.0813098252288 405.50516977157696L1676.0813098252288 361.15997689442594L1695.5309558239792 365.5253418852566Q1696.4602166883642 470.55343027850904 1695.5309558239792 471.48269114289377L1695.5309558239792 471.48269114289377Q1694.7529699840293 471.63396616732854 1687.513379528939 473.2763807183341Q1680.2737890738485 474.8971845515633 1678.2639923206443 475.2213453182091Q1676.2325848496635 475.5238953670786 1669.9222552589576 476.1506061825939Q1663.6335363860285 476.7773169981092 1659.9813250818188 476.1506061825939Q1656.3075030598325 475.5238953670786 1650.8616021801827 474.05436655828413Q1645.415701300532 472.56322703171327 1640.4452362119628 469.775444438559L1640.4452362119628 469.775444438559Q1631.5848419236431 464.9346436566478 1626.744041141732 457.9327710970976Q1621.924851077597 450.9308985375475 1621.6223010287276 443.6264759291278Q1621.2981402620817 436.3220533207082 1623.3295477330626 428.75830209897197Q1625.360955204043 421.21616159501207 1629.7911523482026 414.92744272208273Q1634.2213494923626 408.61711313137704 1639.278257452038 403.7979230672422Q1644.3351654117128 398.9787330031074 1649.9323413157977 396.8608826610212Q1655.5295172198826 394.76464303671145 1659.8948822107131 396.1693396921767L1659.8948822107131 396.1693396921767Q1661.9262896816936 396.79605050769203 1664.173804330438 397.96302926761706Q1666.4213189791826 399.1300080275421 1667.9124585057539 400.0592688919268Q1669.381987314548 400.9885297563116 1672.1049377543732 402.8686622028575Q1674.8278881941983 404.72718393162694 1676.0813098252288 405.50516977157696L1676.0813098252288 405.50516977157696ZM1770.5201465080504 402.3932264117769L1770.5201465080504 402.3932264117769L1768.812899803716 410.7997956267924Q1753.7286187957961 407.3636915003465 1748.8878180138845 407.99040231586173L1748.8878180138845 407.99040231586173Q1741.2808453565958 408.91966318024646 1736.9154803657652 415.3812677953869Q1732.5501153749342 421.8428724105274 1733.8035370059647 427.76420908125806L1733.8035370059647 427.76420908125806Q1734.1060870548345 429.147295018947 1740.9566845899499 427.44004831461217Q1747.8072821250653 425.7328016102774 1755.889690573435 423.93911203483714Q1763.993709739581 422.1454224593968 1766.327667259431 423.39884409042736L1766.327667259431 423.39884409042736Q1777.0681939942965 428.9960199945122 1780.7852374518357 438.1805750494777Q1784.5238916271505 447.3651301044432 1781.6496661628912 455.68525644835313Q1778.7754406986314 464.00538279226305 1769.8934356925351 470.0779944874285Q1761.0330414042155 476.1506061825939 1748.5852679650152 476.1506061825939L1748.5852679650152 476.1506061825939Q1738.3201770212304 476.1506061825939 1729.5246148862398 470.46698740740345Q1720.7290527512491 464.78336863221307 1708.907990127564 453.43774179960866L1708.907990127564 453.43774179960866L1711.7173834384948 448.14311594439323Q1722.2850244311494 456.07424936832814 1734.1060870548345 458.7971998081532Q1745.9487603962957 461.5201502479783 1756.1274084689753 456.70096018384345Q1766.327667259431 451.8817701197086 1769.7421606681005 438.95856088942776L1769.7421606681005 438.95856088942776Q1769.8934356925351 438.33185007391245 1768.3374640126353 438.48312509834716L1768.3374640126353 438.48312509834716Q1766.6302173083004 438.6560108405583 1759.779619773185 440.5145325693278L1759.779619773185 440.5145325693278Q1738.1689019967957 446.26298349784736 1732.247565326065 443.9290259779973L1732.247565326065 443.9290259779973L1730.8428686705997 443.1510401380473Q1722.2850244311494 436.6246033695777 1716.9903985759338 428.8447449700775L1716.9903985759338 428.8447449700775Q1713.1004693761838 423.5501191148621 1713.8136230628047 417.6503931619078Q1714.505166031649 411.7290564911771 1717.7683844158842 406.8234235559367Q1721.053213517895 401.91779062069634 1727.579650286365 398.7410151075671Q1734.1060870548345 395.54262887666147 1741.8859454543344 395.54262887666147L1741.8859454543344 395.54262887666147Q1744.2199029741846 395.54262887666147 1748.4988250939095 396.4718897410462Q1752.777747213635 397.42276132320734 1760.6440484842406 399.67027597195187Q1768.5103497548462 401.91779062069634 1770.5201465080504 402.3932264117769Z " fill="#fcedda" transform="matrix(0.50551804783465,0,0,0.50551804783465,-26.28761592260165,79.51325945419784)"/></g></svg>